<?xml version="1.0" encoding="UTF-8" standalone="no"?>
<svg
   xmlns:dc="http://purl.org/dc/elements/1.1/"
   xmlns:cc="http://creativecommons.org/ns#"
   xmlns:rdf="http://www.w3.org/1999/02/22-rdf-syntax-ns#"
   xmlns:svg="http://www.w3.org/2000/svg"
   xmlns="http://www.w3.org/2000/svg"
   xmlns:sodipodi="http://sodipodi.sourceforge.net/DTD/sodipodi-0.dtd"
   xmlns:inkscape="http://www.inkscape.org/namespaces/inkscape"
   sodipodi:docname="activism.svg"
   inkscape:version="1.0 (4035a4fb49, 2020-05-01)"
   id="svg8"
   version="1.1"
   viewBox="0 0 122.71365 135.46693"
   height="135.46693mm"
   width="122.71365mm">
  <defs
     id="defs2" />
  <sodipodi:namedview
     inkscape:window-maximized="0"
     inkscape:window-y="0"
     inkscape:window-x="953"
     inkscape:window-height="1008"
     inkscape:window-width="958"
     showgrid="false"
     inkscape:document-rotation="0"
     inkscape:current-layer="layer1"
     inkscape:document-units="mm"
     inkscape:cy="184.57193"
     inkscape:cx="260.47124"
     inkscape:zoom="0.35"
     inkscape:pageshadow="2"
     inkscape:pageopacity="0.0"
     borderopacity="1.0"
     bordercolor="#666666"
     pagecolor="#ffffff"
     id="base" />
  <metadata
     id="metadata5">
    <rdf:RDF>
      <cc:Work
         rdf:about="">
        <dc:format>image/svg+xml</dc:format>
        <dc:type
           rdf:resource="http://purl.org/dc/dcmitype/StillImage" />
        <dc:title></dc:title>
      </cc:Work>
    </rdf:RDF>
  </metadata>
  <g
     transform="translate(-36.916984,-99.332011)"
     id="layer1"
     inkscape:groupmode="layer"
     inkscape:label="Layer 1">
    <g
       transform="matrix(0.26458333,0,0,0.26458333,30.540427,99.332011)"
       id="g841">
      <path
         d="m 403.172,105.94 32.134,-32.133 c 5.858,-5.858 5.858,-15.355 0,-21.213 -5.857,-5.858 -15.355,-5.857 -21.213,0 l -32.134,32.133 c -5.858,5.857 -5.858,15.355 0,21.213 5.856,5.857 15.354,5.859 21.213,0 z"
         id="path833" />
      <path
         d="m 226.439,52.594 c -3.454,-3.454 -8.374,-5.009 -13.186,-4.17 -4.812,0.84 -8.913,3.97 -10.993,8.39 L 74.841,327.578 28.492,373.927 c -5.858,5.857 -5.853,15.361 0,21.213 l 64.267,64.267 c 5.859,5.859 15.356,5.856 21.213,0 l 37.594,-37.593 85.794,85.793 c 2.929,2.929 6.768,4.394 10.606,4.394 3.838,0 7.678,-1.464 10.606,-4.394 l 56.233,-56.233 c 5.858,-5.858 5.858,-15.355 0,-21.213 L 253.74,369.096 431.085,285.64 c 4.42,-2.08 7.55,-6.182 8.39,-10.994 0.84,-4.812 -0.716,-9.731 -4.17,-13.185 z M 103.365,427.586 60.311,384.533 87.298,357.547 130.352,400.6 Z m 179.621,13.181 -35.021,35.02 -70.702,-70.702 47.627,-22.414 z M 154.718,382.539 105.361,333.182 220.317,88.898 399.002,267.582 Z"
         id="path835" />
      <path
         d="m 472.9,176.733 h -32.134 c -8.284,0 -15,6.716 -15,15 0,8.284 6.716,15 15,15 H 472.9 c 8.284,0 15,-6.716 15,-15 0,-8.284 -6.716,-15 -15,-15 z"
         id="path837" />
      <path
         d="m 296.166,62.133 c 8.284,0 15,-6.716 15,-15 V 15 c 0,-8.284 -6.716,-15 -15,-15 -8.284,0 -15,6.716 -15,15 v 32.133 c 0,8.284 6.716,15 15,15 z"
         id="path839" />
    </g>
  </g>
</svg>
