<?xml version="1.0" encoding="UTF-8" standalone="no"?>
<svg
   xmlns:dc="http://purl.org/dc/elements/1.1/"
   xmlns:cc="http://creativecommons.org/ns#"
   xmlns:rdf="http://www.w3.org/1999/02/22-rdf-syntax-ns#"
   xmlns:svg="http://www.w3.org/2000/svg"
   xmlns="http://www.w3.org/2000/svg"
   xmlns:sodipodi="http://sodipodi.sourceforge.net/DTD/sodipodi-0.dtd"
   xmlns:inkscape="http://www.inkscape.org/namespaces/inkscape"
   sodipodi:docname="home.svg"
   inkscape:version="1.0 (4035a4fb49, 2020-05-01)"
   id="svg8"
   version="1.1"
   viewBox="0 0 135.46654 126.991"
   height="126.991mm"
   width="135.46654mm">
  <defs
     id="defs2" />
  <sodipodi:namedview
     inkscape:window-maximized="0"
     inkscape:window-y="0"
     inkscape:window-x="953"
     inkscape:window-height="1008"
     inkscape:window-width="958"
     showgrid="false"
     inkscape:document-rotation="0"
     inkscape:current-layer="layer1"
     inkscape:document-units="mm"
     inkscape:cy="208.55443"
     inkscape:cx="298.85689"
     inkscape:zoom="0.35"
     inkscape:pageshadow="2"
     inkscape:pageopacity="0.0"
     borderopacity="1.0"
     bordercolor="#666666"
     pagecolor="#ffffff"
     id="base" />
  <metadata
     id="metadata5">
    <rdf:RDF>
      <cc:Work
         rdf:about="">
        <dc:format>image/svg+xml</dc:format>
        <dc:type
           rdf:resource="http://purl.org/dc/dcmitype/StillImage" />
        <dc:title></dc:title>
      </cc:Work>
    </rdf:RDF>
  </metadata>
  <g
     transform="translate(-26.760781,-92.986641)"
     id="layer1"
     inkscape:groupmode="layer"
     inkscape:label="Layer 1">
    <g
       transform="matrix(0.26458333,0,0,0.26458333,26.760715,88.74881)"
       id="g839">
      <path
         d="M 426,495.983 H 86 c -25.364,0 -46,-20.635 -46,-46 v -242.02 c 0,-8.836 7.163,-16 16,-16 8.837,0 16,7.164 16,16 v 242.02 c 0,7.72 6.28,14 14,14 h 340 c 7.72,0 14,-6.28 14,-14 v -242.02 c 0,-8.836 7.163,-16 16,-16 8.837,0 16,7.164 16,16 v 242.02 c 0,25.364 -20.635,46 -46,46 z"
         id="path833" />
      <path
         d="m 496,263.958 c -4.095,0 -8.189,-1.562 -11.313,-4.687 L 285.698,60.284 c -16.375,-16.376 -43.02,-16.376 -59.396,0 L 27.314,259.272 c -6.248,6.249 -16.379,6.249 -22.627,0 -6.249,-6.248 -6.249,-16.379 0,-22.627 L 203.675,37.656 c 28.852,-28.852 75.799,-28.852 104.65,0 l 198.988,198.988 c 6.249,6.249 6.249,16.379 0,22.627 -3.123,3.125 -7.218,4.687 -11.313,4.687 z"
         id="path835" />
      <path
         d="M 320,495.983 H 192 c -8.837,0 -16,-7.164 -16,-16 v -142 c 0,-27.57 22.43,-50 50,-50 h 60 c 27.57,0 50,22.43 50,50 v 142 c 0,8.836 -7.163,16 -16,16 z m -112,-32 h 96 v -126 c 0,-9.925 -8.075,-18 -18,-18 h -60 c -9.925,0 -18,8.075 -18,18 z"
         id="path837" />
    </g>
  </g>
</svg>
